<svg xmlns="http://www.w3.org/2000/svg" width="214.005" height="214.05" viewBox="0 0 214.005 214.05"><defs><style>.a{fill:#2d2a26;}</style></defs><g transform="translate(13.821)"><path class="a" d="M6.254,0A3.118,3.118,0,0,0,4.116,5.39l51.541,51.5A13.213,13.213,0,0,0,69.912,59.2l106.6-53.279A3.142,3.142,0,0,0,175.089,0Z" transform="translate(-3.103)"/></g><g transform="translate(86.732 10.842)"><path class="a" d="M23.3,60.774c-4.366,2.183-5.123,6.816-1.648,10.29L60.188,109.6a9.009,9.009,0,0,0,12.607,0L141.62,40.772a17.67,17.67,0,0,0,5.123-12.562V8.03a5.355,5.355,0,0,0-7.662-5.078Z" transform="translate(-19.47 -2.434)"/></g><g transform="translate(146.895 67.382)"><path class="a" d="M35.581,87.8a8.873,8.873,0,0,1,0-12.562l59.159-59.2a3.134,3.134,0,0,1,5.346,2.183V143.663a3.558,3.558,0,0,1-6.058,2.539Z" transform="translate(-32.975 -15.126)"/></g><g transform="translate(68.017 146.895)"><path class="a" d="M87.308,35.581a8.926,8.926,0,0,0-12.607,0L16.478,93.8a3.589,3.589,0,0,0,2.361,6.281H143.126a3.591,3.591,0,0,0,2.584-6.058Z" transform="translate(-15.268 -32.975)"/></g><g transform="translate(0 82.386)"><path class="a" d="M76.933,22.485l41.028,41.073a8.873,8.873,0,0,1,0,12.562L59.783,134.343a9.063,9.063,0,0,1-12.651,0L5.212,92.38A17.519,17.519,0,0,1,0,80.352V61.731A17.666,17.666,0,0,1,9.622,45.917L61.253,19.99A13.318,13.318,0,0,1,76.933,22.485Z" transform="translate(0 -18.494)"/></g><g transform="translate(0 13.866)"><path class="a" d="M0,6.264A3.091,3.091,0,0,1,5.346,4.126L54.838,53.573A5.338,5.338,0,0,1,53.5,62.037L7.974,84.757A5.282,5.282,0,0,1,0,80.257Z" transform="translate(0 -3.113)"/></g><g transform="translate(0 174.387)"><path class="a" d="M5.346,40.1A3.12,3.12,0,0,0,0,42.28V69.9a8.907,8.907,0,0,0,8.909,8.909H36.529A3.082,3.082,0,0,0,38.8,73.6Z" transform="translate(0 -39.147)"/></g></svg>